# xmcd
#
# Track frame offsets: 
#        150
#        17742
#        46852
#        65440
#        79702
#        101935
#        123122
#        141970
#        159512
#        178882
#        198135
#        219109
#
# Disc length: 3123 seconds
#
# Revision: 3
# Processed by: cddbd v1.5.2PL0 Copyright (c) Steve Scherf et al.
# Submitted via: ExactAudioCopyFreeDBPlugin 1.0
#
DISCID=9d0c310c
DTITLE=Johnny Jenkins - Blessed Blues
DYEAR=1996
DGENRE=Rhythm and Blues
TTITLE0=Don't Start Me Talkin
TTITLE1=It Ain't Nothin' But the Blues
TTITLE2=Statesboro Blues
TTITLE3=The Truth is Gonna Stand
TTITLE4=You Can't Lose What You Ain't Never Had
TTITLE5=Don't Feel Like Talkin'
TTITLE6=Rock Bottom Blues
TTITLE7='Till the Blues Go Home
TTITLE8=Mean Mistreatin' Woman
TTITLE9=The Pinetopper Theme
TTITLE10=I Think I'm Drowning on Dry Land
TTITLE11=Miss Thing
EXTD=
EXTT0=
EXTT1=
EXTT2=
EXTT3=
EXTT4=
EXTT5=
EXTT6=
EXTT7=
EXTT8=
EXTT9=
EXTT10=
EXTT11=
PLAYORDER=
